# File created by Blade
# Date/Time:  Tue Jan 27 20:08:00 2015
#---------------------------------------------------------
:version 1.10
:name HOM
:units
  mass 1.0
  length 1.000000
  angle deg
:documentation
     Acclaim Skeleton File
:root
   axis xyz
   order TX TY TZ RX RY RZ
   position 0.000000 0.000000 0.000000
   orientation 0 0 0
:bonedata
   begin
      id 1
      name Spine_dum
      direction 0.000000 1.000000 0.000000
      length 6.116652
      axis 0.0 0.0 0.0 xyz
   end
   begin
      id 2
      name LeftUpLeg_dum
      direction 1.000000 0.000000 0.000000
      length 4.711765
      axis 0.0 0.0 0.0 xyz
   end
   begin
      id 3
      name RightUpLeg_dum
      direction -1.000000 0.000000 0.000000
      length 4.711765
      axis 0.0 0.0 0.0 xyz
   end
   begin
      id 4
      name Spine
      direction 0.000000 1.000000 0.000000
      length 0.000000
      axis 0.0 0.0 0.0 xyz
      dof rx ry rz
   end
   begin
      id 5
      name Spine_dum1
      direction 0.000000 1.000000 0.000000
      length 15.225563
      axis 0.0 0.0 0.0 xyz
   end
   begin
      id 6
      name Spine_dum2
      direction 0.000000 1.000000 0.000000
      length 8.977654
      axis 0.0 0.0 0.0 xyz
   end
   begin
      id 7
      name Spine_dum3
      direction 0.000000 1.000000 0.000000
      length 8.977654
      axis 0.0 0.0 0.0 xyz
   end
   begin
      id 8
      name Head
      direction 0.000000 1.000000 0.000000
      length 4.527550
      axis 0.0 0.0 0.0 xyz
      dof rx ry rz
   end
   begin
      id 9
      name LeftShoulder
      direction 1.000000 0.000000 0.000000
      length 7.110130
      axis 0.0 0.0 -90.0 xyz
      dof rx ry rz
   end
   begin
      id 10
      name LeftArm
      direction 1.000000 0.000000 0.000000
      length 10.398341
      axis 0.0 0.0 -90.0 xyz
      dof rx ry rz
   end
   begin
      id 11
      name LeftForeArm
      direction 1.000000 0.000000 0.000000
      length 8.888997
      axis 0.0 0.0 -90.0 xyz
      dof ry rz rx
   end
   begin
      id 12
      name LeftHand
      direction 0.000000 0.000000 0.000000
      length 0.000000
      axis 0.0 0.0 -90.0 xyz
      dof rx ry rz
   end
   begin
      id 13
      name LeftHand_dum1
      direction 0.000000 0.000000 0.000000
      length 0.000000
      axis 0.0 0.0 -90.0 xyz
   end
   begin
      id 14
      name LeftHand_dum2
      direction 1.000000 0.000000 0.000000
      length 3.937000
      axis 0.0 0.0 -90.0 xyz
   end
   begin
      id 15
      name LeftHandThumb1
      direction 0.000000 0.000000 1.000000
      length 3.937000
      axis 0.0 0.0 -90.0 xyz
      dof rx rz ry
   end
   begin
      id 16
      name RightShoulder
      direction -1.000000 0.000000 0.000000
      length 7.110130
      axis 0.0 0.0 90.0 xyz
      dof rx ry rz
   end
   begin
      id 17
      name RightArm
      direction -1.000000 0.000000 0.000000
      length 10.398341
      axis 0.0 0.0 90.0 xyz
      dof rx ry rz
   end
   begin
      id 18
      name RightForeArm
      direction -1.000000 0.000000 0.000000
      length 8.888997
      axis 0.0 0.0 90.0 xyz
      dof ry rz rx
   end
   begin
      id 19
      name RightHand
      direction 0.000000 0.000000 0.000000
      length 0.000000
      axis 0.0 0.0 90.0 xyz
      dof rx ry rz
   end
   begin
      id 20
      name RightHand_dum1
      direction 0.000000 0.000000 0.000000
      length 0.000000
      axis 0.0 0.0 90.0 xyz
   end
   begin
      id 21
      name RightHand_dum2
      direction -1.000000 0.000000 0.000000
      length 3.937000
      axis 0.0 0.0 90.0 xyz
   end
   begin
      id 22
      name RightHandThumb1
      direction 0.000000 0.000000 1.000000
      length 3.937000
      axis 0.0 0.0 90.0 xyz
      dof rx rz ry
   end
   begin
      id 23
      name LeftUpLeg
      direction 0.000000 -1.000000 0.000000
      length 15.510451
      axis 0.0 0.0 0.0 xyz
      dof rx ry rz
   end
   begin
      id 24
      name LeftLeg
      direction 0.000000 -1.000000 0.000000
      length 14.858061
      axis 0.0 0.0 0.0 xyz
      dof rx ry rz
   end
   begin
      id 25
      name LeftFoot
      direction 0.000000 -0.258819 0.965926
      length 5.128852
      axis 15.0 0.0 0.0 xyz
      dof rx ry rz
   end
   begin
      id 26
      name LeftToeBase
      direction 0.000000 0.000000 1.000000
      length 2.952750
      axis 0.0 0.0 0.0 xyz
      dof rx ry rz
   end
   begin
      id 27
      name RightUpLeg
      direction 0.000000 -1.000000 0.000000
      length 15.510451
      axis 0.0 0.0 0.0 xyz
      dof rx ry rz
   end
   begin
      id 28
      name RightLeg
      direction 0.000000 -1.000000 0.000000
      length 14.858061
      axis 0.0 0.0 0.0 xyz
      dof rx ry rz
   end
   begin
      id 29
      name RightFoot
      direction 0.000000 -0.258819 0.965926
      length 5.128852
      axis 15.0 0.0 0.0 xyz
      dof rx ry rz
   end
   begin
      id 30
      name RightToeBase
      direction 0.000000 0.000000 1.000000
      length 2.952750
      axis 0.0 0.0 0.0 xyz
      dof rx ry rz
   end
:hierarchy
   begin
      root Spine_dum LeftUpLeg_dum RightUpLeg_dum
      Spine_dum Spine
      LeftUpLeg_dum LeftUpLeg
      RightUpLeg_dum RightUpLeg
      Spine Spine_dum1 Spine_dum2 Spine_dum3
      Spine_dum1 Head
      Spine_dum2 LeftShoulder
      Spine_dum3 RightShoulder
      LeftShoulder LeftArm
      LeftArm LeftForeArm
      LeftForeArm LeftHand
      LeftHand LeftHand_dum1 LeftHand_dum2
      LeftHand_dum1 LeftHandThumb1
      RightShoulder RightArm
      RightArm RightForeArm
      RightForeArm RightHand
      RightHand RightHand_dum1 RightHand_dum2
      RightHand_dum1 RightHandThumb1
      LeftUpLeg LeftLeg
      LeftLeg LeftFoot
      LeftFoot LeftToeBase
      RightUpLeg RightLeg
      RightLeg RightFoot
      RightFoot RightToeBase
   end

# File created by Blade
# Date/Time:  Tue Jan 27 20:07:51 2015
# Frame Rate: 120.000 fps
#------------------------------------------------------
:FULLY-SPECIFIED
:DEGREES
385
root 6.590108 32.255958 -5.247133 -5.144739 40.009805 2.433144
Spine 7.083743 -11.496579 -6.929585
Head 13.637194 -14.414137 2.641578
LeftShoulder -11.163020 -6.905733 30.830143
LeftArm -1.088442 -7.438056 -84.232418
LeftForeArm -8.815959 -0.000000 109.633237
LeftHand 11.481311 -0.000000 14.003590
LeftHandThumb1 -26.253704 0.000000 33.147579
RightShoulder -21.572759 -20.227599 -21.787136
RightArm 11.333005 -27.494115 93.990998
RightForeArm -14.698477 0.000000 26.211453
RightHand 16.054917 -0.000000 3.481835
RightHandThumb1 -24.326973 -0.000000 -32.862282
LeftUpLeg 8.266439 -17.009425 -11.522952
LeftLeg 3.586267 -0.000000 -0.000000
LeftFoot -10.412178 5.315549 -16.294173
LeftToeBase 14.903550 -0.000000 -0.000000
RightUpLeg -37.356379 17.747761 8.777852
RightLeg 64.247672 -0.000000 -0.000000
RightFoot 6.287424 -14.099505 18.578394
RightToeBase 10.082125 -0.000000 -0.000000
386
root 6.595813 32.256502 -5.242754 -5.151049 39.867232 2.372468
Spine 7.015606 -11.459326 -6.892303
Head 13.603819 -14.399887 2.659076
LeftShoulder -11.164845 -6.865009 30.850579
LeftArm -1.082372 -7.313148 -84.168517
LeftForeArm -8.931903 0.000000 109.664792
LeftHand 11.414016 -0.000000 14.007798
LeftHandThumb1 -26.253704 0.000000 33.147579
RightShoulder -21.554386 -20.155066 -21.818732
RightArm 11.207930 -27.421787 94.038184
RightForeArm -14.792634 -0.000000 26.243033
RightHand 16.065627 0.000000 3.249210
RightHandThumb1 -24.326973 -0.000000 -32.862282
LeftUpLeg 8.227852 -17.264236 -11.516149
LeftLeg 3.721454 -0.000000 -0.000000
LeftFoot -11.214023 6.944030 -16.637974
LeftToeBase 14.747770 -0.000000 -0.000000
RightUpLeg -37.374145 17.800031 8.774925
RightLeg 64.198240 -0.000000 -0.000000
RightFoot 6.399983 -13.985051 18.683397
RightToeBase 10.263831 -0.000000 -0.000000
387
root 6.601772 32.256609 -5.236945 -5.175954 39.688203 2.298963
Spine 6.960899 -11.395328 -6.855159
Head 13.547793 -14.362485 2.720259
LeftShoulder -11.174745 -6.833563 30.886921
LeftArm -1.094980 -7.221722 -84.121864
LeftForeArm -8.982363 -0.000000 109.703533
LeftHand 11.436507 -0.000000 14.003675
LeftHandThumb1 -26.253704 0.000000 33.147579
RightShoulder -21.542111 -20.134274 -21.798546
RightArm 11.182608 -27.307644 94.037464
RightForeArm -14.870780 -0.000000 26.216083
RightHand 16.168445 0.000000 3.274282
RightHandThumb1 -24.326973 -0.000000 -32.862282
LeftUpLeg 8.205809 -17.355137 -11.466847
LeftLeg 3.800931 -0.000000 -0.000000
LeftFoot -11.897618 8.527148 -17.149173
LeftToeBase 13.281418 -0.000000 -0.000000
RightUpLeg -37.383849 17.853000 8.788785
RightLeg 64.154142 -0.000000 -0.000000
RightFoot 6.615732 -13.899550 18.770739
RightToeBase 10.214715 -0.000000 -0.000000
388
root 6.605499 32.256506 -5.230435 -5.201486 39.505025 2.207621
Spine 6.903116 -11.333516 -6.803466
Head 13.484145 -14.314104 2.774397
LeftShoulder -11.188903 -6.836871 30.922010
LeftArm -1.137385 -7.144096 -84.067959
LeftForeArm -9.033795 -0.000000 109.743518
LeftHand 11.419679 -0.000000 14.060256
LeftHandThumb1 -26.253704 0.000000 33.147579
RightShoulder -21.563381 -20.148204 -21.768355
RightArm 11.217263 -27.309682 93.994563
RightForeArm -14.845955 -0.000000 26.201854
RightHand 16.157744 -0.000000 3.194808
RightHandThumb1 -24.326973 -0.000000 -32.862282
LeftUpLeg 8.161983 -17.281782 -11.365439
LeftLeg 3.847433 -0.000000 -0.000000
LeftFoot -12.221979 9.481705 -17.268830
LeftToeBase 11.731949 -0.000000 -0.000000
RightUpLeg -37.393956 17.819704 8.818053
RightLeg 64.103541 -0.000000 -0.000000
RightFoot 7.011154 -13.847494 18.575533
RightToeBase 9.837296 -0.000000 -0.000000
389
root 6.614223 32.257365 -5.222960 -5.232702 39.316144 2.139370
Spine 6.864993 -11.264455 -6.755141
Head 13.398819 -14.301095 2.798063
LeftShoulder -11.205858 -6.782426 30.909013
LeftArm -1.122985 -7.108096 -84.014618
LeftForeArm -9.103545 -0.000000 109.787793
LeftHand 11.409292 -0.000000 13.969373
LeftHandThumb1 -26.253704 0.000000 33.147579
RightShoulder -21.608829 -20.201397 -21.724001
RightArm 11.287934 -27.279861 93.945914
RightForeArm -14.885598 -0.000000 26.198730
RightHand 16.126329 -0.000000 3.176250
RightHandThumb1 -24.326973 -0.000000 -32.862282
LeftUpLeg 8.163489 -17.061087 -11.295050
LeftLeg 3.847331 -0.000000 -0.000000
LeftFoot -12.252308 9.661902 -17.002051
LeftToeBase 9.962440 -0.000000 -0.000000
RightUpLeg -37.397409 17.864067 8.807222
RightLeg 64.104904 -0.000000 -0.000000
RightFoot 7.359201 -13.743286 18.704740
RightToeBase 9.601515 -0.000000 -0.000000
390
root 6.624810 32.258043 -5.214188 -5.261396 39.120036 2.080153
Spine 6.826424 -11.212091 -6.718592
Head 13.323256 -14.238602 2.836774
LeftShoulder -11.239122 -6.765029 30.909901
LeftArm -1.172946 -7.086050 -83.952164
LeftForeArm -9.161504 -0.000000 109.833789
LeftHand 11.450969 -0.000000 13.894458
LeftHandThumb1 -26.253704 0.000000 33.147579
RightShoulder -21.627913 -20.228274 -21.706179
RightArm 11.316330 -27.269069 93.911940
RightForeArm -14.910756 -0.000000 26.220972
RightHand 16.051288 -0.000000 3.106182
RightHandThumb1 -24.326973 -0.000000 -32.862282
LeftUpLeg 8.183759 -16.757207 -11.244588
LeftLeg 3.832804 -0.000000 -0.000000
LeftFoot -12.051040 9.321476 -16.334330
LeftToeBase 11.583660 -0.000000 -0.000000
RightUpLeg -37.398976 17.917451 8.784918
RightLeg 64.115996 -0.000000 -0.000000
RightFoot 7.766590 -13.594847 18.794297
RightToeBase 9.611542 -0.000000 -0.000000
391
root 6.635839 32.257913 -5.205364 -5.271210 38.939059 2.047243
Spine 6.784172 -11.175374 -6.716669
Head 13.259825 -14.169693 2.894047
LeftShoulder -11.236185 -6.732355 30.926756
LeftArm -1.243182 -7.123456 -83.896187
LeftForeArm -9.265513 0.000000 109.893116
LeftHand 11.419172 0.000000 13.814876
LeftHandThumb1 -26.253704 0.000000 33.147579
RightShoulder -21.625859 -20.213897 -21.703104
RightArm 11.296575 -27.237729 93.913242
RightForeArm -14.910777 -0.000000 26.213713
RightHand 16.007267 -0.000000 3.015893
RightHandThumb1 -24.326973 -0.000000 -32.862282
LeftUpLeg 8.215418 -16.579669 -11.232040
LeftLeg 3.800883 -0.000000 -0.000000
LeftFoot -11.923902 9.335538 -15.883685
LeftToeBase 12.178658 -0.000000 -0.000000
RightUpLeg -37.414253 17.948234 8.728069
RightLeg 64.180660 -0.000000 -0.000000
RightFoot 8.449923 -13.490198 18.498875
RightToeBase 9.098790 -0.000000 -0.000000
392
root 6.645786 32.257611 -5.195674 -5.276231 38.759022 1.995454
Spine 6.717462 -11.128832 -6.689996
Head 13.209563 -14.092476 2.936282
LeftShoulder -11.243865 -6.653541 30.921070
LeftArm -1.232913 -7.135718 -83.841318
LeftForeArm -9.329650 0.000000 109.917099
LeftHand 11.386782 0.000000 13.777826
LeftHandThumb1 -26.253704 0.000000 33.147579
RightShoulder -21.617591 -20.146029 -21.732667
RightArm 11.179430 -27.111957 93.995494
RightForeArm -15.013977 -0.000000 26.195429
RightHand 15.981903 -0.000000 3.084136
RightHandThumb1 -24.326973 -0.000000 -32.862282
LeftUpLeg 8.243617 -16.499501 -11.207678
LeftLeg 3.723961 -0.000000 -0.000000
LeftFoot -11.774287 9.589339 -15.466231
LeftToeBase 12.430064 -0.000000 -0.000000
RightUpLeg -37.441482 17.961327 8.678197
RightLeg 64.281336 -0.000000 -0.000000
RightFoot 9.064424 -13.314757 18.411239
RightToeBase 8.896741 -0.000000 -0.000000
393
root 6.654017 32.257406 -5.187451 -5.273957 38.581089 1.926698
Spine 6.638733 -11.073632 -6.640039
Head 13.154531 -14.018863 2.969203
LeftShoulder -11.260195 -6.633306 30.913131
LeftArm -1.258943 -7.150391 -83.789498
LeftForeArm -9.396809 -0.000000 109.926562
LeftHand 11.461433 0.000000 13.698286
LeftHandThumb1 -26.253704 0.000000 33.147579
RightShoulder -21.632780 -20.168411 -21.724307
RightArm 11.176091 -27.077257 94.000516
RightForeArm -15.016357 0.000000 26.156679
RightHand 16.057145 -0.000000 3.016624
RightHandThumb1 -24.326973 -0.000000 -32.862282
LeftUpLeg 8.235966 -16.505726 -11.170961
LeftLeg 3.680291 -0.000000 -0.000000
LeftFoot -11.817150 9.743924 -15.435890
LeftToeBase 13.034884 -0.000000 -0.000000
RightUpLeg -37.495415 18.004256 8.619166
RightLeg 64.374543 -0.000000 -0.000000
RightFoot 9.770907 -13.159880 18.140014
RightToeBase 9.267715 -0.000000 -0.000000
394
root 6.667089 32.255656 -5.177637 -5.268489 38.435869 1.900876
Spine 6.586777 -11.054902 -6.645433
Head 13.103809 -13.918174 3.037678
LeftShoulder -11.298523 -6.594241 30.939734
LeftArm -1.271314 -7.154597 -83.758422
LeftForeArm -9.462345 -0.000000 109.928480
LeftHand 11.533251 -0.000000 13.752390
LeftHandThumb1 -26.253704 0.000000 33.147579
RightShoulder -21.623102 -20.168130 -21.728122
RightArm 11.115338 -27.060250 94.021259
RightForeArm -15.024853 0.000000 26.169550
RightHand 16.042863 -0.000000 2.912865
RightHandThumb1 -24.326973 -0.000000 -32.862282
LeftUpLeg 8.266478 -16.570986 -11.195093
LeftLeg 3.623482 -0.000000 -0.000000
LeftFoot -11.752439 9.865879 -15.238867
LeftToeBase 13.050374 -0.000000 -0.000000
RightUpLeg -37.550533 18.001598 8.520151
RightLeg 64.590218 -0.000000 -0.000000
RightFoot 10.436261 -12.900909 17.906255
RightToeBase 8.978248 -0.000000 -0.000000
